# xmcd
#
# Track frame offsets:
#	150
#	14910
#	26312
#	39222
#	56557
#	71664
#	82354
#	104506
#	117514
#	123034
#	136722
#	151854
#	167716
#	187799
#	200822
#	223207
#	235147
#	247582
#	261365
#	274482
#	292899
#	309624
#
# Disc length: 4338 seconds
#
# Revision: 1
# Processed by: cddbd v1.5.1PL0 Copyright (c) Steve Scherf et al.
# Submitted via: audiograbber 1.82.02
#
DISCID=3f10f016
DTITLE=Various Artist - MMPK0404 Music Maestro Club Pack Disc 4)
DYEAR=1900
DGENRE=
TTITLE0=Cline, Patsy - Crazy
TTITLE1=Reeves, Jim - Welcome To My World
TTITLE2=Parton, Dolly - 9 To 5
TTITLE3=Rogers, Kenny - Gambler
TTITLE4=Gilley, Mickey - Don't The Girls All Get Prettier At Closing Time
TTITLE5=Cline, Patsy - Blue Moon Of Kentucky
TTITLE6=Robbins, Marty - El Paso
TTITLE7=West, Shelly - José Cuévro
TTITLE8=Lane, Frankie - Rawhide
TTITLE9=Arnold, Eddy - Wayward Wind, The
TTITLE10=Williams, Hank Jr. - Hey Good Lookin'
TTITLE11=Cline, Patsy - I Fall To Pieces
TTITLE12=Parton, Dolly - Hard Candy Christmas
TTITLE13=Gayle, Crystal - Don't It Make Brown Eyes Blue
TTITLE14=Denver, John - Rocky Mountain High
TTITLE15=Cash, Johnny - I Walk The Line
TTITLE16=Miller, Roger - King Of The Road
TTITLE17=Tucker, Tanya - Delta Dawn
TTITLE18=Thomas, BJ - Raindrops Keep Fallin' On My Head
TTITLE19=Cash, Johnny - Boy Named Sue, A
TTITLE20=Charlie Daniels Band - Devil Went Down To Georgia
TTITLE21=Oak Ridge Boys, The - Elvira
EXTD=
EXTT0=
EXTT1=
EXTT2=
EXTT3=
EXTT4=
EXTT5=
EXTT6=
EXTT7=
EXTT8=
EXTT9=
EXTT10=
EXTT11=
EXTT12=
EXTT13=
EXTT14=
EXTT15=
EXTT16=
EXTT17=
EXTT18=
EXTT19=
EXTT20=
EXTT21=
PLAYORDER=
